<?xml version="1.0" standalone="no"?><!DOCTYPE svg PUBLIC "-//W3C//DTD SVG 1.1//EN" "http://www.w3.org/Graphics/SVG/1.1/DTD/svg11.dtd"><svg t="1493966758919" class="icon" style="" viewBox="0 0 1024 1024" version="1.1" xmlns="http://www.w3.org/2000/svg" p-id="1614" xmlns:xlink="http://www.w3.org/1999/xlink" width="48" height="48"><defs><style type="text/css"></style></defs><path d="M241.538637 670.12946c-10.525728 0-19.212574 8.686846-19.212574 19.466354v103.948467c0 10.991332 8.686846 19.930935 19.212574 19.930935 10.779507 0 19.699668-8.93858 19.699667-19.930935v-103.947444c-0.001023-10.779507-8.921183-19.467377-19.699667-19.467377z m689.760566-32.993438c0-1.840928 0-3.423983-0.463558-5.031597l-72.350818-442.445877c-2.768043-16.697287-10.547217-32.971949-21.516036-44.174082-12.386098-12.153808-27.963888-19.466354-47.198975-19.466354H234.436892c-18.980283 0-36.418444 7.546883-49.014321 20.142759h-0.191358c-11.920494 12.364609-19.253506 28.851095-19.698644 46.709835l-71.926146 436.252828c-0.676405 2.980891-0.908696 5.26184-0.908696 8.011464V823.559898c2.281973 33.416064 23.820522 62.96403 58.609862 71.904657l0.465605 0.465604h1.375323l0.908696 0.212848 0.930186 0.232291 0.930185 0.233313h0.907672l0.676406 0.234337 1.14201 0.209778 4.818748 0.466628 2.070149 0.23229h0.909719l0.908696 0.232291h686.548408c42.611493 0 77.401858-35.044144 77.401858-77.866439V637.136022h-0.002047zM228.962204 200.418612c0.444115-1.816369 0.675382-3.423983 0.675382-5.473665 0-1.162476 0.676405-2.304486 1.375323-2.981914 0.930185-0.907673 2.282996-1.837858 3.423983-1.837858h555.332924c0.467651 0 0.933255 0 1.165546 0.929162 2.048659 2.049682 3.425006 5.473665 4.099364 9.362229l59.571771 385.133567c-2.301416-0.465604-4.119831-0.465604-5.958712-0.465604h-674.317853c-1.838881 0-4.143367 0-5.958712 0.465604l60.590984-385.131521z m637.999692 619.694791c0 7.099698-5.959735 13.06455-13.062504 13.06455H169.866271c-6.404873-0.468674-11.920494-4.587482-12.597923-11.460006v-0.22922h-0.233314V662.330844c0.464581-7.101745 6.194072-12.57541 13.528108-12.57541h683.335227c3.657296 0 6.868431 1.352811 9.150404 3.88754 2.282996 2.263553 3.911076 5.473665 3.911076 8.68787v157.782559h0.002047zM738.938104 677.209716c-35.741016 0-64.803935 28.873608-64.803935 64.361866 0 35.487236 29.062919 64.572668 64.803935 64.572668 35.044144 0 64.594157-29.317723 64.594157-64.572668-0.00307-35.488259-29.317723-64.361867-64.594157-64.361866z m0 89.99978c-14.646582 0-26.335808-11.455913-26.335808-25.637914 0-14.436804 11.689227-25.892717 26.335808-25.892716 14.182001 0 25.659403 11.68718 25.659403 25.892716 0.001023 13.94971-11.476379 25.637913-25.659403 25.637914z m-354.730117-97.080036c-10.758018 0-19.444864 8.686846-19.444864 19.466354v103.948467c0 10.991332 8.686846 19.930935 19.444864 19.930935 10.547217 0 19.466354-8.93858 19.466354-19.930935v-103.947444c0-10.779507-8.919137-19.467377-19.466354-19.467377z m-71.207785 0c-10.525728 0-19.254529 8.686846-19.25453 19.466354v103.948467c0 10.991332 8.729825 19.930935 19.25453 19.930935 10.525728 0 19.234063-8.93858 19.234063-19.930935v-103.947444c0-10.779507-8.709359-19.467377-19.234063-19.467377z m142.361335-401.12682v-58.650795s0.216941-3.111874-7.79043-4.457521c-6.713912-1.12666-13.142322 2.338255-13.142322 2.338254l-135.360897 73.362868s-12.657274 4.946662-12.657274 14.715143c0 9.541307 8.973372 13.428847 8.973372 13.428848l136.146796 71.410399s8.627495 2.410909 15.97688 1.220805c7.936763-1.284249 7.853875-5.722328 7.853875-5.722329v-54.895261h132.454708s104.434537 10.723226 104.434537 40.314171c0 0-1.755993-93.063559-107.802238-93.063558H455.361537z m135.466298 236.533135v58.706053s1.407046 3.573385 9.927093 4.428869c5.686513 0.573051 9.235338-1.635243 10.475586-2.308579 2.844791-1.543146 135.482671-73.429383 135.48267-73.429382s12.667507-4.950755 12.667508-14.728447c0-9.550517-8.980535-13.440104-8.980535-13.440103l-136.27164-71.476915s-5.669116-2.623757-13.372566-1.087774c-9.521864 1.89721-9.928117 5.594415-9.928116 5.594415v54.942333H457.702861s-104.528682-10.730389-104.528681-40.348964c0 0 1.755993 93.146447 107.898429 93.146447h129.755226z" fill="#1296db" p-id="1615"></path></svg>