<?xml version="1.0" standalone="no"?><!DOCTYPE svg PUBLIC "-//W3C//DTD SVG 1.1//EN" "http://www.w3.org/Graphics/SVG/1.1/DTD/svg11.dtd"><svg t="1493952555215" class="icon" style="" viewBox="0 0 1024 1024" version="1.1" xmlns="http://www.w3.org/2000/svg" p-id="3003" xmlns:xlink="http://www.w3.org/1999/xlink" width="48" height="48"><defs><style type="text/css"></style></defs><path d="M512 42.65984q87.32672 0 169.00096 10.50624t149.83168 30.65856 109.34272 53.6576 41.1648 75.83744l0 597.34016q0 42.33216-41.1648 75.83744t-109.34272 53.6576-149.83168 30.65856-169.00096 10.50624-169.00096-10.50624-149.83168-30.65856-109.34272-53.6576-41.1648-75.83744l0-597.34016q0-42.33216 41.1648-75.83744t109.34272-53.6576 149.83168-30.65856 169.00096-10.50624zM896 810.00448l0-194.33472q-65.3312 32.99328-168.32512 49.99168t-215.67488 16.9984-215.67488-16.9984-168.32512-49.99168l0 194.99008q2.00704 7.33184 17.83808 17.67424t48.49664 22.3232 76.00128 21.99552 107.008 16.67072 134.67648 6.67648 134.67648-6.67648 107.008-16.83456 76.00128-22.15936 48.49664-22.3232 17.83808-18.00192zM896 511.32416l0-194.33472q-65.3312 32.99328-168.32512 49.99168t-215.67488 16.9984-215.67488-16.9984-168.32512-49.99168l0 194.99008q2.00704 7.33184 17.83808 17.67424t48.49664 22.3232 76.00128 21.99552 107.008 16.67072 134.67648 6.67648 134.67648-6.67648 106.82368-16.67072 75.83744-21.99552 48.66048-22.50752 18.00192-18.16576zM512 128q-70.32832 0-133.67296 6.67648t-106.33216 16.50688-75.83744 21.66784-49.17248 22.3232-19.00544 18.16576q2.6624 7.65952 19.00544 18.16576t49.17248 22.3232 75.83744 21.66784 106.33216 16.50688 133.67296 6.67648 133.67296-6.67648 106.33216-16.50688 75.83744-21.66784 49.17248-22.3232 19.00544-18.16576q-2.6624-7.65952-19.00544-18.16576t-49.17248-22.3232-75.83744-21.66784-106.33216-16.50688-133.67296-6.67648z" p-id="3004" fill="#1296db"></path></svg>