<?xml version="1.0" standalone="no"?><!DOCTYPE svg PUBLIC "-//W3C//DTD SVG 1.1//EN" "http://www.w3.org/Graphics/SVG/1.1/DTD/svg11.dtd"><svg t="1493967295986" class="icon" style="" viewBox="0 0 1317 1024" version="1.1" xmlns="http://www.w3.org/2000/svg" p-id="2439" xmlns:xlink="http://www.w3.org/1999/xlink" width="61.734375" height="48"><defs><style type="text/css"></style></defs><path d="M536.380952 804.571429 1316.571429 804.571429 1316.571429 0 121.904762 0 121.904762 243.809524 170.666667 243.809524 170.666667 48.761905 1267.809524 48.761905 1267.809524 755.809524 536.380952 755.809524 536.380952 804.571429Z" p-id="2440" fill="#1296db"></path><path d="M536.380952 1024 975.238095 1024 901.778603 828.952381 850.378067 828.952381 902.095238 975.238095 536.380952 975.238095 536.380952 1024ZM536.380952 828.952381 563.717171 828.952381 536.380952 906.274831 536.380952 828.952381Z" p-id="2441" fill="#1296db"></path><path d="M536.380952 731.428571 1243.428571 731.428571 1243.428571 73.142857 195.047619 73.142857 195.047619 243.809524 219.428571 243.809524 219.428571 99.474286 1217.172161 99.474286 1217.172161 705.097143 536.380952 705.097143 536.380952 731.428571Z" p-id="2442" fill="#1296db"></path><path d="M0 292.571429 487.619048 292.571429 487.619048 1024 0 1024 0 292.571429ZM48.761905 341.333333 438.857143 341.333333 438.857143 975.238095 48.761905 975.238095 48.761905 341.333333ZM231.619048 950.857143C251.816889 950.857143 268.190476 934.483556 268.190476 914.285714 268.190476 894.087873 251.816889 877.714286 231.619048 877.714286 211.421205 877.714286 195.047619 894.087873 195.047619 914.285714 195.047619 934.483556 211.421205 950.857143 231.619048 950.857143ZM73.142857 365.714286 414.47619 365.714286 414.47619 853.333333 73.142857 853.333333 73.142857 365.714286ZM97.52381 390.095238 390.095238 390.095238 390.095238 828.952381 97.52381 828.952381 97.52381 390.095238Z" p-id="2443" fill="#1296db"></path></svg>