<?xml version="1.0" standalone="no"?><!DOCTYPE svg PUBLIC "-//W3C//DTD SVG 1.1//EN" "http://www.w3.org/Graphics/SVG/1.1/DTD/svg11.dtd"><svg class="icon" width="30px" height="30.00px" viewBox="0 0 1024 1024" version="1.1" xmlns="http://www.w3.org/2000/svg"><path fill="#1296db" d="M16.064 647.832l987.184 0L1003.248 371.392 16.064 371.392 16.064 647.832zM803.336 462.264l77.976 0c26.12 0 47.352 21.168 47.352 47.352 0 26.112-21.168 47.344-47.352 47.344l-77.976 0c-26.12 0-47.352-21.168-47.352-47.344C756.048 483.496 777.216 462.264 803.336 462.264zM1003.176 96.696c0-44.568-36.144-80.704-80.72-80.704L96.704 15.992C52.136 15.992 16 52.128 16 96.696l0 195.736 987.176 0L1003.176 96.696zM881.312 202.048l-77.976 0c-26.12 0-47.352-21.168-47.352-47.352 0-26.104 21.168-47.344 47.352-47.344l77.976 0c26.12 0 47.352 21.168 47.352 47.344C928.664 180.816 907.432 202.048 881.312 202.048zM16.064 726.856l0 195.744c0 44.56 36.144 80.704 80.704 80.704l825.832 0c44.56 0 80.704-36.144 80.704-80.704L1003.304 726.856 16.064 726.856zM881.312 911.872l-77.976 0c-26.12 0-47.352-21.168-47.352-47.352 0-26.112 21.168-47.344 47.352-47.344l77.976 0c26.12 0 47.352 21.168 47.352 47.344C928.664 890.712 907.432 911.872 881.312 911.872z" /></svg>